<?xml version="1.0" encoding="UTF-8" standalone="no"?>
<!-- Created with Inkscape (http://www.inkscape.org/) -->

<svg
   xmlns:dc="http://purl.org/dc/elements/1.1/"
   xmlns:cc="http://creativecommons.org/ns#"
   xmlns:rdf="http://www.w3.org/1999/02/22-rdf-syntax-ns#"
   xmlns:svg="http://www.w3.org/2000/svg"
   xmlns="http://www.w3.org/2000/svg"
   xmlns:sodipodi="http://sodipodi.sourceforge.net/DTD/sodipodi-0.dtd"
   xmlns:inkscape="http://www.inkscape.org/namespaces/inkscape"
   width="418"
   height="420"
   viewBox="0 0 418 420.00001"
   id="svg2"
   version="1.1"
   inkscape:version="0.92.2 (unknown)"
   sodipodi:docname="burning_matchstick_01.svg">
  <defs
     id="defs4" />
  <sodipodi:namedview
     id="base"
     pagecolor="#ffffff"
     bordercolor="#666666"
     borderopacity="1.0"
     inkscape:pageopacity="0.0"
     inkscape:pageshadow="2"
     inkscape:zoom="1.1767184"
     inkscape:cx="209"
     inkscape:cy="210"
     inkscape:document-units="px"
     inkscape:current-layer="layer1"
     showgrid="false"
     showguides="true"
     units="px"
     inkscape:window-width="1366"
     inkscape:window-height="716"
     inkscape:window-x="0"
     inkscape:window-y="0"
     inkscape:window-maximized="1" />
  <metadata
     id="metadata7">
    <rdf:RDF>
      <cc:Work
         rdf:about="">
        <dc:format>image/svg+xml</dc:format>
        <dc:type
           rdf:resource="http://purl.org/dc/dcmitype/StillImage" />
        <dc:title></dc:title>
      </cc:Work>
    </rdf:RDF>
  </metadata>
  <g
     inkscape:label="Ebene 1"
     inkscape:groupmode="layer"
     id="layer1"
     transform="translate(0,-632.36216)">
    <g
       id="g4620"
       transform="matrix(1.8017372,0,0,1.8017372,-196.31107,-710.14761)">
      <g
         transform="translate(-160.0726,6.8602541)"
         id="g4583">
        <path
           style="opacity:1;fill:#000000;fill-opacity:1;fill-rule:evenodd;stroke:#000000;stroke-width:7;stroke-linecap:butt;stroke-linejoin:miter;stroke-miterlimit:4;stroke-dasharray:none;stroke-opacity:1"
           d="m 339.43969,935.86967 c 7.34299,-4.90309 16.7287,-7.82257 19.21078,-14.90261 2.48208,-7.08004 6.52278,-15.14533 7.95944,-18.89062 1.43666,-3.74529 6.58944,-9.10351 8.32527,-12.37446 1.73583,-3.27095 96.04355,-112.81307 96.04355,-112.81307 l 16.76951,0.76225 5.33576,16.76951 -95.28131,113.57532 c 0,0 -3.33828,4.78013 -6.8305,7.44681 -3.49222,2.66668 -14.45302,7.44682 -14.45302,7.44682 -1.54265,0.40667 -15.95203,5.82979 -18.48139,15.46273 0,0 1.11216,8.80693 0.28034,13.09191 -0.59002,3.03933 -1.615,6.21159 -3.6588,8.53721 -1.71444,1.95084 -4.23516,3.1693 -6.70781,3.9637 -3.3027,1.06107 -6.98807,1.70157 -10.3666,0.9147 -3.2424,-0.75516 -6.63388,-2.45187 -8.53721,-5.1833 -2.13097,-3.05809 -2.79628,-7.5984 -2.1343,-10.97641 0.66198,-3.37801 5.1833,-7.9274 5.1833,-7.9274 1.22553,-0.76403 0,0 7.34299,-4.90309 z"
           id="path4528"
           inkscape:connector-curvature="0"
           sodipodi:nodetypes="zzzzcccczccssssszsz" />
        <path
           style="fill:#ffffff;fill-rule:evenodd;stroke:none;stroke-width:1px;stroke-linecap:butt;stroke-linejoin:miter;stroke-opacity:1"
           d="m 486.89622,785.61882 2.99684,9.98946 c 0,0 -87.11587,101.78997 -94.89985,110.55 -7.78398,8.76003 -17.40092,10.15769 -17.40092,10.15769 0,0 1.74024,-7.75686 8.4104,-15.15242 6.67016,-7.39556 100.89353,-115.54473 100.89353,-115.54473 z"
           id="path4564"
           inkscape:connector-curvature="0"
           sodipodi:nodetypes="cczczc" />
        <path
           style="fill:#ffffff;fill-rule:evenodd;stroke:none;stroke-width:1px;stroke-linecap:butt;stroke-linejoin:miter;stroke-opacity:1"
           d="m 470.91309,781.95602 h 11.65437 c 0,0 -98.82398,115.66985 -103.88749,121.33516 -5.06351,5.66531 -10.0887,7.0677 -10.0887,7.0677 0,0 0.75372,-7.48701 5.93484,-15.76751 5.18112,-8.2805 96.38698,-112.63535 96.38698,-112.63535 z"
           id="path4562"
           inkscape:connector-curvature="0"
           sodipodi:nodetypes="cczczc" />
      </g>
      <path
         sodipodi:nodetypes="cccccccccccccssc"
         inkscape:connector-curvature="0"
         id="path4594"
         d="m 195.36645,782.34213 c 0,0 2.937,13.70194 0.27431,15.19988 -27.99405,-25.01029 -18.16495,-33.78968 -7.05395,-48.97157 -34.57622,8.30247 -50.21095,29.44333 -58.80024,57.36608 -3.56592,-4.2628 -7.17076,-11.11431 -7.17076,-16.49275 -17.80025,33.66309 -6.6159,52.64576 8.23827,80.79398 -8.61791,-3.53844 -16.7028,-2.74063 -16.66248,-7.51671 -1.88608,20.61143 15.42447,38.54141 30.74392,38.54141 -4.7758,3.39172 -5.48787,3.05195 -9.27682,3.63056 14.36353,16.90353 47.87761,6.60128 47.06694,26.31366 l 8.41896,-4.31018 c 4.33237,-3.39072 6.76943,-22.90905 5.42802,-27.02824 -2.20011,3.86446 -2.6005,3.05609 -5.154,5.49207 0.49235,-7.5216 9.79613,-16.91427 15.98033,-26.18545 7.43417,-11.14509 3.5362,-23.11783 4.53779,-39.93405 1.87091,-31.41179 -0.59205,-37.98039 -16.57029,-56.89869 z"
         style="opacity:1;fill:#000000;fill-rule:evenodd;stroke:#000000;stroke-width:1px;stroke-linecap:butt;stroke-linejoin:miter;stroke-opacity:1" />
      <path
         sodipodi:nodetypes="ccczccccsscccccc"
         inkscape:connector-curvature="0"
         id="path4596"
         d="m 145.70946,834.25263 c -15.80315,22.46425 16.77385,33.71161 12.09244,51.79307 -7.44151,-0.0134 -14.83634,-5.49791 -19.94665,-8.14928 1.19757,18.34303 13.72935,19.23731 21.70409,22.93082 7.97475,3.69351 13.56007,5.30486 16.94261,8.25127 3.45275,3.26272 7.61279,9.62528 7.61279,9.62528 0,0 0.44643,-11.26901 0.79626,-12.92202 1.73785,-8.71529 2.96469,-12.70694 8.63908,-19.45848 2.55119,-4.02563 7.7636,-10.42721 7.88571,-12.74559 0.12212,-2.31837 -0.30697,-4.606 -0.72187,-6.17197 -1.65961,-6.26388 -5.21198,-10.10041 -9.503,-13.04286 2.67084,11.81248 -2.53875,22.36235 -5.08376,22.36235 -0.27559,-9.05316 1.55745,-20.68212 -9.10145,-25.84521 -4.06092,-2.76485 -14.13332,-9.15747 -20.3897,-10.9337 1.54664,3.46866 2.0917,4.3187 4.817,7.83443 -12.64993,-4.31215 -13.49296,-5.92432 -15.74355,-13.52811 z"
         style="fill:#ffffff;fill-rule:evenodd;stroke:none;stroke-width:1px;stroke-linecap:butt;stroke-linejoin:miter;stroke-opacity:1" />
    </g>
  </g>
</svg>
